<svg width="20" height="17" viewBox="0 0 20 17" fill="none" xmlns="http://www.w3.org/2000/svg">
<path d="M18 4.28418L10 9.28418L2 4.28418V2.28418L10 7.28418L18 2.28418M18 0.28418H2C0.89 0.28418 0 1.17418 0 2.28418V14.2842C0 14.8146 0.210714 15.3233 0.585786 15.6984C0.960859 16.0735 1.46957 16.2842 2 16.2842H18C18.5304 16.2842 19.0391 16.0735 19.4142 15.6984C19.7893 15.3233 20 14.8146 20 14.2842V2.28418C20 1.75375 19.7893 1.24504 19.4142 0.869966C19.0391 0.494893 18.5304 0.28418 18 0.28418Z" fill="#282828"/>
</svg>
