<svg width="20" height="21" viewBox="0 0 20 21" fill="none" xmlns="http://www.w3.org/2000/svg">
<path d="M13.2477 14.3942L14.9277 12.7142C15.154 12.4907 15.4403 12.3378 15.7518 12.2739C16.0634 12.21 16.3867 12.2379 16.6827 12.3542L18.7302 13.1717C19.0293 13.2931 19.2858 13.5003 19.4673 13.7673C19.6488 14.0342 19.7473 14.3489 19.7502 14.6717V18.4217C19.7485 18.6413 19.7023 18.8583 19.6145 19.0595C19.5267 19.2608 19.3991 19.4422 19.2393 19.5929C19.0796 19.7435 18.891 19.8603 18.6849 19.9361C18.4788 20.012 18.2595 20.0453 18.0402 20.0342C3.69272 19.1417 0.797722 6.99171 0.250222 2.34171C0.224807 2.11336 0.248028 1.88222 0.318359 1.66349C0.388689 1.44476 0.504534 1.2434 0.658273 1.07266C0.812012 0.90192 1.00016 0.765664 1.21034 0.672858C1.42052 0.580052 1.64797 0.5328 1.87772 0.53421H5.50022C5.82348 0.535167 6.13906 0.632811 6.40637 0.814582C6.67368 0.996354 6.8805 1.25394 7.00022 1.55421L7.81772 3.60171C7.93791 3.89651 7.96858 4.22019 7.90588 4.53232C7.84319 4.84445 7.68992 5.13118 7.46522 5.35671L5.78522 7.03671C5.78522 7.03671 6.75272 13.5842 13.2477 14.3942Z" fill="#282828"/>
</svg>
